<?xml version="1.0" standalone="no"?>
<!DOCTYPE svg PUBLIC "-//W3C//DTD SVG 20010904//EN"
 "http://www.w3.org/TR/2001/REC-SVG-20010904/DTD/svg10.dtd">
<svg version="1.0" xmlns="http://www.w3.org/2000/svg"
 width="800.000000pt" height="800.000000pt" viewBox="0 0 800.000000 800.000000"
 preserveAspectRatio="xMidYMid meet">

<g transform="translate(0.000000,800.000000) scale(0.100000,-0.100000)"
fill="#000000" stroke="none">
<path d="M1890 5040 l0 -160 235 0 235 0 0 -1035 0 -1035 160 0 160 0 0 1195
0 1195 -395 0 -395 0 0 -160z"/>
<path d="M3925 5189 c-305 -41 -572 -185 -764 -410 -380 -447 -382 -1094 -5
-1542 171 -203 391 -333 668 -394 l121 -27 1253 -3 1252 -4 0 155 0 155 -1232
4 c-1210 3 -1235 3 -1323 24 -197 46 -335 123 -466 260 -104 110 -174 233
-215 383 -28 101 -26 339 4 442 43 153 116 277 228 389 181 183 398 267 664
256 106 -4 140 -10 222 -37 221 -73 402 -224 507 -421 48 -88 91 -230 98 -319
l6 -80 158 0 159 0 0 28 c0 48 -29 215 -50 292 -29 106 -118 283 -189 378
-177 234 -435 397 -723 456 -97 20 -282 28 -373 15z"/>
<path d="M5840 5171 c-14 -4 -39 -15 -55 -24 -124 -64 -141 -243 -30 -334 100
-83 241 -60 309 51 80 129 -1 292 -154 310 -25 3 -56 1 -70 -3z m92 -31 c44
-13 93 -52 113 -91 18 -33 20 -121 4 -152 -50 -96 -172 -131 -258 -74 -44 29
-81 96 -81 145 0 72 57 147 127 169 49 15 51 15 95 3z"/>
<path d="M5820 4970 c0 -82 3 -100 15 -100 11 0 15 11 15 41 l0 40 38 -3 c35
-3 37 -5 40 -40 3 -30 7 -38 23 -38 15 0 19 7 19 34 0 19 -7 41 -15 49 -13 13
-13 16 0 27 18 15 20 61 3 78 -7 7 -39 12 -75 12 l-63 0 0 -100z m111 64 c20
-24 -1 -48 -45 -52 -35 -3 -36 -2 -36 32 0 34 2 36 34 36 18 0 39 -7 47 -16z"/>
<path d="M1540 4570 l0 -150 175 0 175 0 0 -805 0 -805 155 0 155 0 0 955 0
955 -330 0 -330 0 0 -150z"/>
<path d="M3977 4679 c-173 -23 -343 -118 -445 -251 -54 -71 -108 -182 -127
-259 -19 -82 -19 -246 0 -328 53 -222 234 -414 460 -484 109 -35 197 -37 1396
-37 l1189 0 0 150 0 149 -1222 3 -1223 3 -56 21 c-115 44 -175 98 -225 200
-26 53 -29 69 -29 159 0 87 3 107 27 157 36 78 95 139 175 179 63 32 73 34
167 34 88 0 108 -3 158 -27 31 -14 77 -45 102 -68 53 -49 106 -149 113 -215
l6 -45 152 0 153 0 -5 48 c-37 383 -384 660 -766 611z"/>
</g>
</svg>
