<?xml version="1.0" encoding="UTF-8"?>
<!DOCTYPE svg PUBLIC "-//W3C//DTD SVG 1.1//EN" "http://www.w3.org/Graphics/SVG/1.1/DTD/svg11.dtd">
<svg xmlns="http://www.w3.org/2000/svg" version="1.1" width="1633px" height="1633px" style="shape-rendering:geometricPrecision; text-rendering:geometricPrecision; image-rendering:optimizeQuality; fill-rule:evenodd; clip-rule:evenodd" xmlns:xlink="http://www.w3.org/1999/xlink">
<g><path style="opacity:0.999" fill="#00b2ff" d="M 965.5,99.5 C 990.324,96.5582 1012.32,102.892 1031.5,118.5C 1062.29,106.843 1094.12,100.509 1127,99.5C 1191.04,100.591 1238.04,129.257 1268,185.5C 1286.8,225.371 1297.13,267.371 1299,311.5C 1301.97,387.962 1294.13,463.295 1275.5,537.5C 1331.5,554.886 1385.5,577.053 1437.5,604C 1476.94,624.764 1512.44,650.93 1544,682.5C 1566.5,705.812 1583.16,732.812 1594,763.5C 1606.67,808.15 1600.67,850.15 1576,889.5C 1552.5,925 1523,954.5 1487.5,978C 1441,1008.25 1391.67,1033.25 1339.5,1053C 1317.2,1061.43 1294.7,1069.27 1272,1076.5C 1282.08,1117.61 1289.58,1159.28 1294.5,1201.5C 1327.7,1219.57 1342.2,1247.57 1338,1285.5C 1332.42,1313.24 1316.92,1333.24 1291.5,1345.5C 1285.97,1378.6 1274.8,1409.6 1258,1438.5C 1226.73,1486.4 1182.23,1510.73 1124.5,1511.5C 1093.59,1510.35 1063.59,1504.52 1034.5,1494C 993.044,1478.11 954.044,1457.77 917.5,1433C 879.029,1406.71 843.029,1377.21 809.5,1344.5C 762.281,1388.6 710.948,1427.1 655.5,1460C 624.452,1477.52 591.785,1491.19 557.5,1501C 447.984,1526.4 375.818,1485.9 341,1379.5C 327.422,1329.72 322.422,1279.05 326,1227.5C 328.888,1177.01 336.054,1127.18 347.5,1078C 315.795,1068.21 284.629,1057.04 254,1044.5C 229.829,1064.8 202.663,1069.97 172.5,1060C 135.242,1042.98 118.408,1013.82 122,972.5C 92.248,951.415 67.248,925.749 47,895.5C 13.7503,840.581 13.0836,785.247 45,729.5C 69.1223,692.378 99.6223,661.544 136.5,637C 180.284,607.772 226.951,583.772 276.5,565C 298.085,557.365 319.418,549.365 340.5,541C 317.719,456.745 310.886,371.245 320,284.5C 324.659,249.523 335.325,216.523 352,185.5C 386.117,128.354 436.617,102.188 503.5,107C 540.944,110.704 576.611,120.704 610.5,137C 650.164,156.15 687.497,178.817 722.5,205C 750.55,227.439 779.05,249.273 808,270.5C 837.537,242.619 868.537,216.619 901,192.5C 896.159,156.357 908.992,128.524 939.5,109C 947.882,104.71 956.548,101.543 965.5,99.5 Z M 1070.5,186.5 C 1149.02,183.006 1200.19,218.672 1224,293.5C 1236.74,336.587 1241.74,380.587 1239,425.5C 1237.53,458.084 1233.86,490.417 1228,522.5C 1227.48,523.516 1226.65,524.182 1225.5,524.5C 1148.2,505.005 1069.86,491.672 990.5,484.5C 944.721,421.538 895.721,361.038 843.5,303C 870.645,279.513 899.479,258.346 930,239.5C 953.428,256.405 978.928,260.238 1006.5,251C 1033.96,239.368 1050.62,218.868 1056.5,189.5C 1061.23,188.209 1065.9,187.209 1070.5,186.5 Z M 525.5,193.5 C 563.341,194.836 599.341,203.669 633.5,220C 682.426,243.609 727.426,272.943 768.5,308C 723.365,356.787 680.865,407.62 641,460.5C 635.167,469 629.333,477.5 623.5,486C 544.524,493.968 466.691,508.135 390,528.5C 389.055,528.095 388.388,527.428 388,526.5C 376.97,470.199 374.303,413.532 380,356.5C 384.003,315.477 397.67,278.143 421,244.5C 447.842,211.162 482.675,194.162 525.5,193.5 Z M 803.5,336.5 C 826.799,359.967 849.966,383.633 873,407.5C 894.188,431.387 915.021,455.554 935.5,480C 895.046,478.28 854.546,477.114 814,476.5C 767.795,477.348 721.628,478.848 675.5,481C 695.164,455.522 715.664,430.689 737,406.5C 759.006,382.995 781.172,359.662 803.5,336.5 Z M 764.5,514.5 C 829.618,513.266 894.618,515.433 959.5,521C 996.225,565.066 1029.06,611.9 1058,661.5C 1086.69,709.868 1112.52,759.868 1135.5,811.5C 1091,909.723 1038,1002.56 976.5,1090C 865.226,1101.78 753.893,1102.45 642.5,1092C 612.734,1053.65 585.567,1013.48 561,971.5C 530.987,920.315 503.154,867.815 477.5,814C 523.651,712.141 578.818,615.974 643,525.5C 644.167,524.333 645.333,523.167 646.5,522C 685.926,518.456 725.259,515.956 764.5,514.5 Z M 592.5,527.5 C 593.239,527.369 593.906,527.536 594.5,528C 543.547,604.368 498.047,684.201 458,767.5C 430.427,703.787 410.76,637.787 399,569.5C 462.495,550.436 526.995,536.436 592.5,527.5 Z M 1022.5,528.5 C 1089.11,536.259 1154.61,550.259 1219,570.5C 1203.91,635.119 1183.57,698.119 1158,759.5C 1115.33,680.793 1070.16,603.793 1022.5,528.5 Z M 1263.5,584.5 C 1315.2,602.684 1363.54,627.184 1408.5,658C 1439.89,679.724 1465.39,706.891 1485,739.5C 1508.33,783.833 1508.33,828.167 1485,872.5C 1463.97,905.867 1437.13,933.701 1404.5,956C 1359.34,986.667 1310.84,1010.17 1259,1026.5C 1238.02,952.393 1211.86,880.226 1180.5,810C 1214.59,737.242 1242.25,662.076 1263.5,584.5 Z M 349.5,585.5 C 350.822,585.33 351.989,585.663 353,586.5C 373.542,664.905 401.376,740.572 436.5,813.5C 404.611,884.835 378.277,958.168 357.5,1033.5C 330.6,1024.22 304.267,1013.55 278.5,1001.5C 282.887,965.476 269.887,937.643 239.5,918C 220.073,908.134 199.74,905.801 178.5,911C 170.798,913.531 163.465,916.531 156.5,920C 141.423,904.349 128.923,886.849 119,867.5C 99.4723,824.189 101.472,781.856 125,740.5C 145.365,707.801 171.532,680.634 203.5,659C 249.028,628.403 297.694,603.903 349.5,585.5 Z M 457.5,858.5 C 486.901,918.643 519.401,976.976 555,1033.5C 566.975,1051.95 579.809,1069.78 593.5,1087C 527.533,1079.14 462.699,1065.64 399,1046.5C 404.575,1019.2 411.575,992.204 420,965.5C 431.423,929.395 443.923,893.728 457.5,858.5 Z M 1028.5,1083.5 C 1076.12,1011.31 1119.45,936.307 1158.5,858.5C 1183.58,917.92 1203.75,978.92 1219,1041.5C 1156.76,1061.1 1093.26,1075.1 1028.5,1083.5 Z M 1224.5,1088.5 C 1226.17,1088.5 1227.83,1088.5 1229.5,1088.5C 1235.64,1124.28 1239.97,1160.28 1242.5,1196.5C 1209.52,1204.98 1189.69,1225.98 1183,1259.5C 1178.8,1295.93 1192.3,1323.43 1223.5,1342C 1195.27,1410.8 1143.94,1441.8 1069.5,1435C 1027.62,1428.71 988.283,1415.04 951.5,1394C 911.642,1371.41 874.642,1344.91 840.5,1314.5C 897.62,1257.25 949.286,1195.75 995.5,1130C 1060.74,1123.02 1125.4,1112.35 1189.5,1098C 1201.42,1095.27 1213.08,1092.11 1224.5,1088.5 Z M 389.5,1090.5 C 465.709,1109.31 542.876,1122.64 621,1130.5C 667.593,1195.45 719.76,1255.95 777.5,1312C 740.298,1343.94 700.298,1371.94 657.5,1396C 623.058,1414.81 586.392,1426.81 547.5,1432C 477.864,1437.28 429.031,1408.11 401,1344.5C 384.442,1301.94 376.609,1257.77 377.5,1212C 378.101,1171.15 382.101,1130.65 389.5,1090.5 Z M 939.5,1133.5 C 940.978,1133.24 942.311,1133.57 943.5,1134.5C 902.566,1188.62 857.066,1238.95 807,1285.5C 772.888,1254.39 741.221,1221.06 712,1185.5C 698.471,1168.94 685.305,1152.11 672.5,1135C 742.784,1138.69 813.118,1139.36 883.5,1137C 902.354,1136.33 921.021,1135.17 939.5,1133.5 Z"/></g>
<g><path style="opacity:1" fill="#00b2ff" d="M 793.5,679.5 C 854.549,681.409 896.049,710.742 918,767.5C 933.764,829.093 915.93,878.259 864.5,915C 823.707,937.736 782.04,939.402 739.5,920C 688.816,890.469 666.316,846.302 672,787.5C 682.261,736.239 712.095,702.072 761.5,685C 772.184,682.387 782.85,680.553 793.5,679.5 Z"/></g>
</svg>
